<svg xmlns="http://www.w3.org/2000/svg" viewBox="0 0 40 40">
<path d="M13 11.5 l2 -4 l2.5 3.5z M18 9.5 l2 -4.5 l2 4.5z M22.5 11 l2.5 -3.5 l2 4z" fill="#4e9a52" stroke="var(--gn-line)" stroke-width="1.2" stroke-linejoin="round"/><path d="M9.5 21 q-1 -12 10.5 -12 q11.5 0 10.5 12 q0 8 -10.5 8 q-10.5 0 -10.5 -8z" fill="#7cc47f" stroke="var(--gn-line)" stroke-width="1.6"/><circle cx="15.8" cy="17" r="2.4" fill="var(--gn-lite)" stroke="var(--gn-line)" stroke-width="1"/><circle cx="24.2" cy="17" r="2.4" fill="var(--gn-lite)" stroke="var(--gn-line)" stroke-width="1"/><circle cx="16.2" cy="17.4" r="1.1" fill="var(--gn-line)"/><circle cx="23.8" cy="17.4" r="1.1" fill="var(--gn-line)"/><circle cx="18.3" cy="22.5" r=".8" fill="var(--gn-line)"/><circle cx="21.7" cy="22.5" r=".8" fill="var(--gn-line)"/><path d="M14 24.5 q6 4 12 0" fill="none" stroke="var(--gn-line)" stroke-width="1.2" stroke-linecap="round"/><path d="M16 25.8 l1 1.6 l1 -1.2 M22 26.2 l1 1.2 l1 -1.6" fill="var(--gn-lite)" stroke="var(--gn-line)" stroke-width=".8" stroke-linejoin="round"/>
</svg>
