<svg xmlns="http://www.w3.org/2000/svg" viewBox="0 0 300 96">
<rect width="300" height="96" fill="var(--gn-sky)"/>
<g fill="var(--gn-star)"><circle cx="30" cy="18" r="1.6"/><circle cx="62" cy="34" r="1.2"/><circle cx="238" cy="16" r="1.6"/><circle cx="270" cy="40" r="1.2"/><circle cx="210" cy="30" r="1"/></g>
<path d="M-4 80 H304 V100 H-4Z" fill="var(--gn-hill2)" stroke="var(--gn-line)" stroke-width="2" stroke-linejoin="round"/>
<rect x="108" y="14" width="86" height="60" rx="9" fill="var(--gn-wall)" stroke="var(--gn-line)" stroke-width="2" stroke-linejoin="round"/>
<rect x="117" y="22" width="68" height="42" rx="4" fill="var(--gn-c)" stroke="var(--gn-line)" stroke-width="2" stroke-linejoin="round"/>
<circle cx="151" cy="43" r="13" style="stroke:var(--gn-lite)" fill="none" stroke-width="2" stroke-linecap="round" stroke-linejoin="round"/>
<path d="M138 43 H164 M151 30 q-8 13 0 26 M151 30 q8 13 0 26" style="stroke:var(--gn-lite);stroke-width:1.6" fill="none" stroke-linecap="round" stroke-linejoin="round"/>
<path d="M140 74 h22 l5 7 h-32z" fill="var(--gn-wall)" stroke="var(--gn-line)" stroke-width="2" stroke-linejoin="round"/>
<path d="M194 58 q22 0 22 12 t22 12" fill="none" stroke="var(--gn-line)" stroke-width="2" stroke-linecap="round" stroke-linejoin="round"/>
<rect x="232" y="66" width="44" height="16" rx="3" fill="var(--gn-wall)" stroke="var(--gn-line)" stroke-width="2" stroke-linejoin="round"/>
<g fill="var(--gn-c)"><circle cx="242" cy="74" r="2.2"/><circle cx="251" cy="74" r="2.2"/><circle cx="260" cy="74" r="2.2"/></g>
<rect x="38" y="50" width="32" height="32" rx="3" fill="var(--gn-c)" stroke="var(--gn-line)" stroke-width="2" stroke-linejoin="round"/>
<rect x="45" y="50" width="18" height="11" fill="var(--gn-lite)" stroke="var(--gn-line)" stroke-width="2" stroke-linejoin="round"/>
<rect x="44" y="68" width="20" height="14" fill="var(--gn-wall)" stroke="var(--gn-line)" stroke-width="2" stroke-linejoin="round"/>
<path d="M86 78 V86 M94 78 V86" style="stroke-width:2.4" fill="none" stroke="var(--gn-line)" stroke-linecap="round" stroke-linejoin="round"/>
<path d="M81 58 l-6 -8 M99 62 l5 4" style="stroke-width:2.4" fill="none" stroke="var(--gn-line)" stroke-linecap="round" stroke-linejoin="round"/>
<circle cx="74" cy="49" r="2.4" fill="var(--gn-skin1)" style="stroke-width:1.4" stroke="var(--gn-line)" stroke-linejoin="round"/>
<rect x="80" y="46" width="20" height="32" rx="5" fill="#2b2f3a" style="stroke-width:1.6" stroke="var(--gn-line)" stroke-linejoin="round"/>
<rect x="83" y="51" width="14" height="21" rx="1.5" fill="var(--gn-win)"/>
<circle cx="90" cy="58" r="4.4" fill="var(--gn-skin1)" style="stroke-width:1.4" stroke="var(--gn-line)" stroke-linejoin="round"/>
<g fill="var(--gn-line)"><circle cx="88.5" cy="57.5" r=".8"/><circle cx="91.5" cy="57.5" r=".8"/></g>
<g fill="var(--gn-c)"><rect x="85" y="65" width="3" height="3"/><rect x="89" y="65" width="3" height="3"/><rect x="93" y="65" width="3" height="3"/></g>
<circle cx="90" cy="75" r="1.5" fill="var(--gn-lite)"/>
</svg>
