<svg xmlns="http://www.w3.org/2000/svg" viewBox="0 0 600 150">
<rect x="14" y="94" width="38" height="38" rx="3" fill="var(--gn-c)" stroke="var(--gn-line)" stroke-width="2" stroke-linejoin="round"/>
<rect x="23" y="94" width="20" height="13" fill="var(--gn-lite)" stroke="var(--gn-line)" stroke-width="2" stroke-linejoin="round"/>
<rect x="21" y="114" width="24" height="18" fill="var(--gn-wall)" stroke="var(--gn-line)" stroke-width="2" stroke-linejoin="round"/>
<path d="M78 122 V132 M90 122 V132" style="stroke-width:3" fill="none" stroke="var(--gn-line)" stroke-linecap="round" stroke-linejoin="round"/>
<path d="M73 132 h8 v-3 h-8z M87 132 h8 v-3 h-8z" fill="var(--gn-line)" stroke="var(--gn-line)" stroke-width="2" stroke-linejoin="round"/>
<path d="M70 96 l-9 -12 M98 100 l9 6" style="stroke-width:3" fill="none" stroke="var(--gn-line)" stroke-linecap="round" stroke-linejoin="round"/>
<circle cx="60" cy="82" r="3.2" fill="var(--gn-skin1)" stroke="var(--gn-line)" stroke-width="2" stroke-linejoin="round"/>
<path d="M108 106 V80" style="stroke-width:1.6" fill="none" stroke="var(--gn-line)" stroke-linecap="round" stroke-linejoin="round"/>
<path d="M100 74 h22 l6 7 l-6 7 h-22z" fill="var(--gn-c)" stroke="var(--gn-line)" stroke-width="2" stroke-linejoin="round"/>
<circle cx="108" cy="107" r="3.2" fill="var(--gn-skin1)" stroke="var(--gn-line)" stroke-width="2" stroke-linejoin="round"/>
<rect x="68" y="72" width="32" height="52" rx="7" fill="#2b2f3a" stroke="var(--gn-line)" stroke-width="2" stroke-linejoin="round"/>
<rect x="72" y="80" width="24" height="34" rx="2" fill="var(--gn-win)" style="stroke-width:1.4" stroke="var(--gn-line)" stroke-linejoin="round"/>
<circle cx="84" cy="91" r="7" fill="var(--gn-skin1)" stroke="var(--gn-line)" stroke-width="2" stroke-linejoin="round"/>
<circle cx="81.5" cy="90" r="1.1" fill="var(--gn-line)"/><circle cx="86.5" cy="90" r="1.1" fill="var(--gn-line)"/>
<path d="M81 94 q3 2.4 6 0" style="stroke-width:1.2" fill="none" stroke="var(--gn-line)" stroke-linecap="round" stroke-linejoin="round"/>
<g fill="var(--gn-c)"><rect x="75" y="103" width="5" height="5" rx="1"/><rect x="82" y="103" width="5" height="5" rx="1"/><rect x="89" y="103" width="5" height="5" rx="1"/></g>
<rect x="79" y="75" width="10" height="2" rx="1" fill="var(--gn-lite)"/>
<circle cx="84" cy="119" r="2.4" fill="var(--gn-lite)"/>
<rect x="118" y="16" width="136" height="116" fill="var(--gn-wall)" stroke="var(--gn-line)" stroke-width="2" stroke-linejoin="round"/>
<rect x="130" y="26" width="112" height="38" rx="5" fill="var(--gn-c)" stroke="var(--gn-line)" stroke-width="2" stroke-linejoin="round"/>
<circle cx="186" cy="45" r="13" style="stroke:var(--gn-lite)" fill="none" stroke-width="2" stroke-linecap="round" stroke-linejoin="round"/>
<path d="M173 45 H199 M186 32 q-8 13 0 26 M186 32 q8 13 0 26" style="stroke:var(--gn-lite);stroke-width:1.6" fill="none" stroke-linecap="round" stroke-linejoin="round"/>
<g fill="var(--gn-glass)" style="stroke-width:1.4" stroke="var(--gn-line)" stroke-linejoin="round"><rect x="132" y="74" width="28" height="12"/><rect x="172" y="74" width="28" height="12"/><rect x="212" y="74" width="28" height="12"/><rect x="132" y="92" width="28" height="12"/><rect x="172" y="92" width="28" height="12"/><rect x="212" y="92" width="28" height="12"/></g>
<rect x="170" y="110" width="32" height="22" fill="var(--gn-glass)" stroke="var(--gn-line)" stroke-width="2" stroke-linejoin="round"/>
<rect x="254" y="72" width="48" height="60" fill="var(--gn-wall)" stroke="var(--gn-line)" stroke-width="2" stroke-linejoin="round"/>
<rect x="262" y="82" width="32" height="10" fill="var(--gn-glass)" stroke="var(--gn-line)" stroke-width="2" stroke-linejoin="round"/>
<rect x="262" y="100" width="32" height="10" fill="var(--gn-glass)" stroke="var(--gn-line)" stroke-width="2" stroke-linejoin="round"/>
<path d="M266 72 a13 13 0 0 1 24 -8z" fill="var(--gn-lite)" stroke="var(--gn-line)" stroke-width="2" stroke-linejoin="round"/>
<path d="M140 16 V6 M232 16 V2" style="stroke-width:1.6" fill="none" stroke="var(--gn-line)" stroke-linecap="round" stroke-linejoin="round"/>
<circle cx="232" cy="2" r="2.4" fill="var(--gn-c)"/>
</svg>
